<?xml version="1.0" standalone="no"?>
<!DOCTYPE svg PUBLIC "-//W3C//DTD SVG 20010904//EN"
 "http://www.w3.org/TR/2001/REC-SVG-20010904/DTD/svg10.dtd">
<svg version="1.0" xmlns="http://www.w3.org/2000/svg"
 width="2960.000000pt" height="6084.000000pt" viewBox="0 0 2960.000000 6084.000000"
 preserveAspectRatio="xMidYMid meet">

<g transform="translate(0.000000,6084.000000) scale(0.100000,-0.100000)"
fill="#000000" stroke="none">
<path d="M12631 40079 c-194 -25 -373 -119 -513 -267 -86 -91 -138 -181 -185
-317 l-38 -110 0 -1420 0 -1420 38 -110 c47 -136 99 -226 185 -317 165 -174
358 -261 614 -275 96 -5 118 -9 122 -22 24 -85 31 -156 31 -321 0 -158 -4
-198 -23 -273 -54 -215 -180 -402 -370 -551 -66 -52 -80 -78 -65 -123 15 -45
52 -60 115 -46 141 29 462 175 656 297 348 219 673 541 879 871 l51 80 83 -2
c46 -1 203 -7 349 -13 1374 -52 2531 -35 4060 60 889 55 861 52 1015 124 240
113 397 302 472 566 17 62 18 137 18 1475 0 1338 -1 1413 -18 1475 -75 264
-233 453 -472 566 -181 84 -201 86 -985 58 -1668 -59 -2009 -67 -2730 -68
-507 0 -849 5 -1175 17 -253 10 -770 28 -1150 42 -379 13 -737 26 -795 29 -58
2 -134 0 -169 -5z m4858 -1525 c16 -35 15 -41 -18 -82 -48 -60 -147 -249 -204
-387 -59 -144 -93 -277 -83 -331 14 -69 104 -81 276 -35 79 21 100 17 100 -20
0 -27 -93 -96 -152 -114 -61 -18 -161 -20 -209 -4 -76 26 -139 118 -139 205 1
170 182 599 315 743 60 65 92 72 114 25z m-4497 -10 c101 -29 187 -126 188
-212 0 -18 -7 -49 -16 -70 -39 -95 -209 -218 -382 -276 l-63 -22 40 -60 c48
-71 167 -188 246 -240 30 -20 55 -40 55 -44 0 -4 -5 -21 -11 -39 -9 -26 -16
-31 -43 -31 -75 0 -313 205 -360 311 -16 35 -26 49 -30 39 -3 -8 -29 -82 -57
-165 -28 -82 -57 -156 -64 -164 -17 -17 -67 -6 -91 20 -17 19 -17 22 3 72 12
28 25 63 28 77 10 35 163 412 224 552 28 64 51 124 51 133 0 9 -9 19 -20 22
-22 6 -37 40 -22 55 19 19 158 57 211 58 30 0 81 -7 113 -16z m1006 -44 c30
-28 28 -44 -18 -143 -23 -48 -64 -155 -92 -239 l-52 -153 -4 -155 c-3 -128 -6
-157 -20 -167 -49 -39 -102 9 -102 93 0 30 -3 54 -6 54 -3 0 -27 -19 -52 -41
-51 -45 -114 -78 -149 -79 -29 0 -87 51 -103 91 -34 82 67 291 163 338 51 25
89 26 146 6 32 -11 43 -12 46 -2 3 7 23 66 46 132 48 138 94 242 116 267 21
24 54 23 81 -2z m2442 5 c62 -32 60 -51 -25 -250 -51 -121 -115 -298 -109
-304 2 -2 42 33 89 77 93 90 115 98 166 61 16 -11 36 -33 44 -49 17 -33 19
-127 5 -213 -8 -52 -7 -62 11 -86 24 -32 17 -58 -18 -72 -44 -16 -70 -10 -98
23 -28 33 -28 33 -21 145 7 111 6 113 -15 113 -24 0 -170 -143 -220 -216 -25
-37 -35 -44 -52 -38 -45 13 -67 34 -67 63 0 30 109 355 200 596 29 77 54 146
56 153 4 16 19 15 54 -3z m-3036 -130 c38 -35 33 -78 -17 -132 -37 -41 -117
-21 -117 29 0 19 33 91 52 116 16 19 53 14 82 -13z m2264 9 c36 -25 45 -50 32
-89 -15 -45 -54 -75 -96 -75 -27 0 -36 6 -49 29 -16 32 -14 37 42 129 16 26
40 28 71 6z m340 -57 l22 -23 -30 -62 -29 -62 61 0 c70 0 98 -17 98 -60 0 -35
-13 -40 -111 -40 -71 0 -80 -2 -93 -22 -28 -46 -49 -133 -50 -209 -1 -105 8
-113 80 -74 54 29 56 30 70 11 36 -50 -52 -136 -139 -136 -36 0 -94 37 -114
73 -18 33 -15 161 6 249 10 43 16 80 13 83 -3 3 -20 5 -39 5 -27 0 -35 5 -44
28 -15 38 0 56 55 64 67 9 88 27 115 96 39 101 83 128 129 79z m3625 -138 c15
-11 32 -37 38 -58 10 -34 9 -42 -21 -95 -28 -49 -36 -57 -59 -54 -38 4 -57 48
-37 88 13 26 13 30 0 30 -27 0 -91 -39 -118 -70 -33 -40 -33 -69 3 -145 56
-119 59 -167 13 -208 -24 -22 -86 -32 -137 -23 -49 10 -115 70 -115 105 0 40
9 43 46 20 22 -13 46 -19 71 -17 49 4 54 28 19 95 -28 54 -51 153 -41 183 9
30 105 112 166 142 68 34 135 37 172 7z m-5346 -18 c34 -16 44 -27 54 -60 21
-69 -16 -152 -94 -215 -32 -25 -48 -31 -86 -30 -26 0 -58 8 -73 18 l-27 18
-11 -43 c-29 -106 27 -138 130 -75 61 38 88 44 108 24 32 -32 -12 -92 -102
-138 -160 -83 -283 17 -245 201 23 115 120 267 194 304 41 20 101 18 152 -4z
m3728 -16 c17 -13 50 -41 74 -62 l44 -39 -16 -49 c-33 -97 -13 -185 50 -211
26 -11 33 -20 33 -42 0 -38 -17 -52 -65 -52 -56 0 -98 29 -126 88 l-24 49 -63
-59 c-69 -64 -146 -108 -189 -108 -51 0 -113 59 -113 109 0 25 83 186 130 253
43 60 121 131 161 147 32 13 67 5 104 -24z m541 25 c35 -12 84 -82 84 -120 0
-42 -34 -94 -68 -104 -17 -5 -38 -6 -47 -2 -16 6 -16 25 1 86 2 8 0 21 -5 28
-7 12 -14 11 -39 -2 -46 -24 -70 -61 -98 -151 -32 -103 -30 -139 9 -143 33 -4
99 32 141 77 33 34 70 40 102 17 19 -14 19 -15 -1 -51 -38 -72 -180 -165 -253
-165 -48 0 -101 28 -123 64 -51 84 4 282 110 398 65 72 120 91 187 68z m-3672
-59 c6 -22 4 -53 -7 -104 -9 -39 -19 -94 -22 -120 -6 -44 -5 -48 12 -45 24 4
108 128 134 197 31 84 55 103 104 85 36 -14 37 -51 5 -145 -34 -99 -36 -152
-6 -157 27 -6 115 91 159 175 42 80 65 100 97 83 15 -8 20 -21 20 -54 0 -77
-26 -129 -104 -210 -107 -112 -198 -145 -251 -91 -14 13 -25 35 -25 49 0 41
-19 40 -55 -1 -39 -46 -114 -89 -138 -80 -25 10 -55 65 -68 125 -19 95 26 306
71 329 32 16 63 1 74 -36z m4284 29 c32 -20 32 -20 18 -52 -110 -254 -124
-311 -88 -372 22 -38 19 -46 -29 -64 -46 -18 -89 37 -89 114 l0 35 -72 -61
c-39 -33 -79 -60 -89 -60 -25 0 -65 35 -79 70 -36 87 77 400 145 400 24 0 65
-41 65 -65 0 -7 -18 -43 -39 -80 -42 -71 -87 -182 -78 -191 3 -3 19 2 36 11
40 20 109 108 163 208 51 93 75 127 91 127 7 0 27 -9 45 -20z m-5878 -63 c54
-45 55 -47 17 -159 -19 -57 -40 -127 -47 -155 -21 -92 -66 -126 -106 -82 -36
39 -18 125 81 397 6 15 35 15 55 -1z m2293 -15 c15 -15 27 -37 27 -48 0 -10
-15 -66 -34 -124 -19 -58 -39 -126 -46 -152 -15 -58 -40 -83 -75 -74 -33 8
-48 48 -41 105 5 38 86 287 102 312 10 17 41 9 67 -19z"/>
<path d="M12834 38394 c-15 -33 -53 -115 -85 -183 -33 -68 -57 -126 -54 -129
15 -15 203 65 273 117 88 65 107 144 49 207 -29 31 -39 36 -95 41 l-62 6 -26
-59z"/>
<path d="M13594 37973 c-38 -37 -67 -93 -79 -150 -6 -30 -4 -33 17 -33 32 0
105 47 146 94 81 92 3 176 -84 89z"/>
<path d="M14174 38071 c-17 -10 -40 -32 -51 -48 l-21 -28 24 -17 c32 -25 51
-22 85 12 24 23 30 37 27 62 -4 40 -22 45 -64 19z"/>
<path d="M17909 38043 c-55 -47 -162 -223 -145 -240 13 -14 164 113 201 169
29 44 31 61 9 82 -21 22 -27 20 -65 -11z"/>
<path d="M10595 35990 c-120 -24 -255 -86 -362 -166 -85 -64 -141 -131 -190
-229 -65 -129 -154 -274 -201 -326 -62 -69 -124 -113 -272 -194 -149 -81 -195
-113 -233 -160 -49 -61 -85 -164 -61 -172 5 -2 18 21 27 50 35 111 92 164 272
254 61 31 124 64 140 75 23 15 20 10 -11 -19 -23 -21 -72 -56 -110 -78 -83
-47 -218 -180 -256 -251 l-28 -52 94 -90 c240 -229 600 -407 961 -476 210 -40
205 -39 205 -8 0 79 23 272 40 338 22 87 65 188 88 206 9 7 4 -7 -10 -32 -53
-90 -72 -174 -73 -305 0 -100 4 -132 24 -193 13 -40 28 -75 33 -78 21 -13 21
10 -1 74 -29 83 -38 227 -22 314 26 136 142 318 231 363 64 32 159 62 271 84
226 47 383 134 463 259 24 37 46 76 51 87 11 28 50 -95 68 -216 l13 -94 20 80
c13 56 19 112 18 185 -2 118 -23 193 -85 296 -40 66 -160 183 -248 244 -132
89 -375 189 -544 224 -80 17 -243 20 -312 6z"/>
<path d="M11823 34935 c-30 -18 -49 -41 -69 -80 -22 -46 -31 -55 -53 -55 -15
0 -43 -8 -63 -19 l-37 -18 -12 29 c-27 65 -106 101 -174 78 -74 -24 -145 -129
-145 -213 0 -52 22 -105 57 -139 31 -30 40 -33 91 -33 50 0 63 4 99 33 49 39
81 100 90 171 6 56 23 71 91 84 29 6 32 4 32 -19 0 -36 28 -91 58 -114 15 -13
40 -20 66 -20 114 0 196 139 151 256 -31 82 -104 105 -182 59z m135 -28 c27
-25 45 -86 36 -124 -18 -78 -83 -143 -143 -143 -31 0 -81 50 -90 90 -18 79 35
180 104 199 37 11 63 5 93 -22z m-433 -79 c81 -64 70 -212 -23 -288 -68 -56
-166 -33 -192 46 -51 154 105 329 215 242z"/>
<path d="M9807 32753 c-4 -3 -7 -20 -7 -36 0 -24 -3 -28 -19 -24 -21 5 -56
-40 -208 -268 -459 -687 -596 -1329 -365 -1700 33 -52 162 -185 232 -240 86
-66 514 -298 524 -283 1 1 -102 323 -230 713 -128 391 -233 716 -233 723 -1
11 16 12 80 6 69 -6 81 -5 74 7 -5 8 -66 101 -137 206 -70 106 -128 195 -128
198 0 3 134 94 298 203 l297 199 -3 81 c-3 73 -6 82 -23 82 -15 0 -19 -7 -19
-35 0 -24 -5 -35 -15 -35 -11 0 -15 11 -15 38 0 21 -6 44 -12 51 -10 11 -10
14 0 18 20 7 14 33 -8 33 -17 0 -20 -7 -20 -46 0 -40 -2 -44 -15 -30 -10 10
-15 35 -15 80 0 48 -4 66 -13 66 -8 0 -17 -3 -20 -7z m63 -184 c0 -18 -2 -19
-15 -9 -8 7 -15 16 -15 21 0 5 7 9 15 9 9 0 15 -9 15 -21z m70 -65 c0 -14 -3
-14 -15 -4 -8 7 -15 14 -15 16 0 2 7 4 15 4 8 0 15 -7 15 -16z"/>
<path d="M10010 32535 c0 -9 9 -15 21 -15 18 0 19 2 9 15 -7 8 -16 15 -21 15
-5 0 -9 -7 -9 -15z"/>
<path d="M10010 32496 c0 -9 5 -16 10 -16 6 0 10 4 10 9 0 6 -4 13 -10 16 -5
3 -10 -1 -10 -9z"/>
<path d="M10155 32390 c-3 -5 1 -10 10 -10 9 0 13 5 10 10 -3 6 -8 10 -10 10
-2 0 -7 -4 -10 -10z"/>
<path d="M9849 32190 l-266 -175 124 -185 c67 -102 129 -192 136 -200 10 -12
60 -21 186 -33 l173 -18 237 33 c215 29 238 34 233 50 -3 12 1 18 12 18 15 0
15 2 2 23 -8 12 -16 51 -18 86 -2 40 -8 66 -15 69 -9 2 -13 -9 -13 -36 0 -34
-3 -39 -19 -35 -18 4 -22 26 -22 105 0 9 -7 22 -15 29 -12 10 -14 4 -14 -35 0
-44 -1 -45 -20 -34 -17 11 -20 24 -20 80 0 54 -3 68 -15 68 -10 0 -15 -11 -15
-35 0 -28 -4 -35 -20 -35 -22 0 -28 26 -7 33 10 4 10 7 0 18 -7 7 -13 30 -13
51 0 27 -4 38 -15 38 -10 0 -15 -11 -15 -35 0 -28 -4 -35 -20 -35 -18 0 -20 7
-20 69 0 49 -4 72 -15 81 -13 11 -15 8 -15 -15 0 -27 0 -28 -20 -10 -12 11
-20 31 -20 52 0 23 -5 33 -15 33 -10 0 -15 -11 -15 -35 0 -28 -4 -35 -20 -35
-18 0 -20 7 -20 74 0 44 -5 78 -11 82 -8 5 -8 8 0 14 9 5 8 10 -4 20 -13 11
-15 8 -15 -23 0 -28 -3 -35 -15 -31 -9 4 -15 19 -15 40 0 27 -4 34 -20 34 -16
0 -20 -7 -20 -35 0 -54 -28 -47 -32 8 l-3 43 -266 -176z m301 40 c0 -5 -2 -10
-4 -10 -3 0 -8 5 -11 10 -3 6 -1 10 4 10 6 0 11 -4 11 -10z m70 -5 c0 -8 -7
-15 -15 -15 -8 0 -15 7 -15 15 0 8 7 15 15 15 8 0 15 -7 15 -15z m70 -140 c0
-8 -4 -15 -9 -15 -5 0 -14 7 -21 15 -10 13 -9 15 9 15 12 0 21 -6 21 -15z m70
0 c0 -8 -9 -15 -20 -15 -11 0 -20 7 -20 15 0 8 9 15 20 15 11 0 20 -7 20 -15z
m70 -141 c0 -9 -7 -14 -17 -12 -25 5 -28 28 -4 28 12 0 21 -6 21 -16z m140
-139 c0 -8 -9 -15 -20 -15 -11 0 -20 7 -20 15 0 8 9 15 20 15 11 0 20 -7 20
-15z m70 -71 c0 -8 -4 -12 -10 -9 -5 3 -10 10 -10 16 0 5 5 9 10 9 6 0 10 -7
10 -16z"/>
<path d="M10710 31760 c0 -5 5 -10 11 -10 5 0 7 5 4 10 -3 6 -8 10 -11 10 -2
0 -4 -4 -4 -10z"/>
<path d="M10710 31696 c0 -34 4 -46 15 -46 10 0 15 10 15 34 0 18 -7 39 -15
46 -13 11 -15 6 -15 -34z"/>
<path d="M10780 31692 c0 -18 5 -32 11 -32 5 0 8 4 5 9 -4 5 0 11 6 14 10 3 8
9 -4 23 -17 18 -18 17 -18 -14z"/>
<path d="M9879 29423 l-325 -3 -47 -223 c-26 -122 -47 -228 -47 -234 0 -7 8
-13 18 -14 14 0 14 -2 -3 -8 -17 -8 -29 -55 -90 -350 -44 -216 -74 -341 -82
-341 -44 0 -265 95 -345 148 -21 13 -42 22 -46 18 -13 -13 -14 -237 -2 -406
29 -416 83 -669 244 -1155 221 -663 282 -891 332 -1235 23 -158 15 -412 -16
-520 -27 -96 -90 -225 -179 -366 -117 -187 -178 -327 -297 -679 -151 -443
-187 -680 -165 -1082 18 -337 7 -391 -120 -605 -150 -254 -204 -417 -249 -758
-27 -201 -37 -633 -21 -885 18 -286 57 -672 77 -767 l6 -28 554 0 553 0 15 28
c7 15 69 153 136 307 423 968 797 1868 1143 2755 l84 215 11 -70 c23 -146 33
-257 41 -466 10 -270 0 -524 -34 -800 -38 -307 -46 -445 -33 -569 32 -324 202
-680 601 -1257 l98 -143 519 0 518 0 6 63 c17 206 68 3979 63 4712 -4 595 -5
614 -30 780 -94 618 -221 1255 -454 2270 -52 231 -99 424 -103 428 -4 4 -198
-26 -431 -68 -233 -42 -442 -77 -464 -77 -58 -1 -668 122 -680 137 -5 7 -57
159 -115 338 -100 311 -106 327 -130 328 -22 1 -23 2 -5 7 20 7 17 20 -73 295
-52 158 -97 286 -101 285 -3 -2 -153 -4 -332 -5z m-332 -489 c-3 -3 -12 -4
-19 -1 -8 3 -5 6 6 6 11 1 17 -2 13 -5z m76 -11 c-7 -2 -19 -2 -25 0 -7 3 -2
5 12 5 14 0 19 -2 13 -5z m70 -10 c-7 -2 -19 -2 -25 0 -7 3 -2 5 12 5 14 0 19
-2 13 -5z m74 -9 c-3 -3 -12 -4 -19 -1 -8 3 -5 6 6 6 11 1 17 -2 13 -5z m170
-20 c-3 -3 -12 -4 -19 -1 -8 3 -5 6 6 6 11 1 17 -2 13 -5z m106 -11 c-7 -2
-21 -2 -30 0 -10 3 -4 5 12 5 17 0 24 -2 18 -5z m106 -7 c-2 -2 -14 -8 -26
-14 -17 -9 -22 -9 -27 3 -4 11 2 15 26 15 17 0 29 -2 27 -4z"/>
<path d="M18014 28980 c-55 -22 -71 -99 -30 -147 l24 -28 471 -3 c517 -3 530
-2 552 55 18 46 0 95 -41 115 -32 16 -76 18 -495 17 -253 0 -470 -4 -481 -9z"/>
<path d="M19274 28980 c-50 -20 -70 -93 -39 -137 24 -34 77 -47 114 -28 36 18
51 43 51 84 0 59 -71 105 -126 81z"/>
<path d="M16240 25020 l0 -3430 2260 0 2260 0 0 3430 0 3430 -2260 0 -2260 0
0 -3430z m1193 2667 c67 -51 72 -68 75 -292 5 -241 -3 -286 -56 -338 -21 -21
-54 -42 -73 -47 -45 -13 -424 -13 -471 0 -46 13 -104 76 -118 131 -7 26 -10
117 -8 249 l3 208 30 43 c55 77 66 80 341 77 l241 -3 36 -28z m1326 15 c19 -9
48 -34 65 -55 l31 -39 3 -221 c4 -233 -1 -273 -40 -322 -45 -57 -81 -65 -318
-65 -233 0 -267 7 -317 61 -39 43 -43 72 -43 307 0 221 1 228 24 266 13 21 41
49 62 62 38 23 45 24 269 24 199 0 235 -2 264 -18z m1363 -4 c22 -13 51 -41
64 -64 23 -40 24 -46 24 -267 0 -234 -4 -263 -43 -306 -50 -54 -84 -61 -317
-61 -187 0 -220 3 -255 19 -94 43 -105 78 -105 345 0 228 4 252 48 300 49 52
68 55 316 56 218 0 230 -1 268 -22z m-2714 -1169 c26 -13 54 -38 70 -62 l27
-41 0 -236 0 -236 -28 -43 c-49 -74 -77 -81 -331 -81 -204 0 -223 2 -264 21
-26 13 -54 38 -70 62 -27 40 -27 42 -30 251 -5 272 8 319 100 365 40 19 59 21
262 21 203 0 223 -2 264 -21z m1347 2 c94 -43 105 -79 105 -343 0 -242 -7
-272 -76 -324 l-37 -29 -221 -3 c-122 -2 -236 0 -254 3 -37 7 -96 55 -118 96
-20 40 -21 477 0 517 18 35 64 78 96 91 14 5 124 10 245 10 193 1 225 -2 260
-18z m1342 8 c34 -13 80 -55 99 -91 21 -40 20 -477 0 -517 -22 -41 -81 -89
-118 -96 -18 -3 -132 -5 -254 -3 l-221 3 -36 28 c-71 54 -77 78 -77 322 0 268
11 303 105 346 35 16 68 19 257 19 129 0 228 -4 245 -11z m-2702 -1178 c51
-23 91 -70 105 -123 7 -25 10 -118 8 -247 -3 -230 -7 -247 -75 -298 l-36 -28
-252 0 -252 0 -36 28 c-68 51 -72 68 -75 298 -4 226 2 269 45 320 52 62 84 69
318 69 182 0 215 -3 250 -19z m1382 -13 c24 -16 49 -44 62 -70 19 -41 21 -61
21 -261 0 -229 -4 -254 -48 -300 -52 -55 -62 -57 -313 -57 -227 0 -233 1 -273
24 -23 13 -51 42 -64 64 -21 38 -22 50 -22 265 0 136 4 237 11 254 15 40 48
73 94 94 36 17 62 19 266 17 l226 -3 40 -27z m1329 13 c23 -10 54 -36 70 -57
l29 -37 3 -239 c3 -233 2 -239 -20 -279 -13 -23 -41 -51 -64 -65 -40 -23 -46
-24 -273 -24 -251 0 -261 2 -313 57 -44 46 -48 71 -48 300 0 199 2 220 21 260
22 45 61 79 107 93 15 5 122 9 237 9 185 0 215 -2 251 -18z m-2700 -1173 c43
-23 81 -71 94 -116 13 -50 13 -406 -1 -457 -14 -51 -73 -110 -124 -124 -52
-14 -408 -14 -460 0 -51 14 -110 73 -124 124 -14 51 -14 407 -1 457 12 41 50
92 84 110 43 23 85 27 291 25 176 -2 215 -5 241 -19z m1317 11 c47 -13 106
-63 123 -106 10 -24 14 -90 14 -248 0 -239 -5 -263 -61 -315 -49 -44 -106 -52
-336 -48 l-201 3 -43 30 c-76 54 -79 68 -79 328 0 192 3 235 16 264 20 41 66
77 114 91 47 14 405 15 453 1z m-1493 -1549 c80 -41 100 -99 100 -295 0 -161
-9 -201 -53 -252 -50 -57 -75 -63 -267 -63 -192 0 -217 6 -267 63 -47 54 -55
98 -51 282 3 157 4 163 30 203 49 73 76 81 286 82 163 0 187 -2 222 -20z
m1975 1 c90 -41 105 -84 105 -298 0 -194 -12 -234 -83 -281 -40 -27 -41 -27
-232 -27 -191 0 -192 0 -232 27 -71 47 -83 87 -83 281 0 214 15 257 105 298
34 16 66 19 210 19 144 0 176 -3 210 -19z m988 5 c43 -17 95 -78 102 -118 4
-19 5 -112 3 -209 l-3 -176 -29 -38 c-52 -67 -91 -77 -294 -73 -164 3 -180 5
-214 26 -20 13 -47 40 -60 60 -21 34 -23 50 -26 207 -4 179 2 223 40 270 43
55 85 65 276 65 123 0 182 -4 205 -14z"/>
<path d="M17941 21123 c-96 -48 -96 -189 -1 -238 25 -13 111 -15 562 -15 511
0 534 1 565 20 75 45 84 144 19 209 l-36 36 -538 2 c-486 3 -540 1 -571 -14z"/>
</g>
</svg>
